<?xml version="1.0" encoding="UTF-8" standalone="no"?>
<!-- Created with Inkscape (http://www.inkscape.org/) -->

<svg
   width="255.99998"
   height="255.99998"
   viewBox="0 0 67.733328 67.733329"
   version="1.1"
   id="svg1"
   inkscape:export-filename="icon.svg"
   inkscape:export-xdpi="96"
   inkscape:export-ydpi="96"
   sodipodi:docname="icon.svg"
   inkscape:version="1.3 (0e150ed6c4, 2023-07-21)"
   xmlns:inkscape="http://www.inkscape.org/namespaces/inkscape"
   xmlns:sodipodi="http://sodipodi.sourceforge.net/DTD/sodipodi-0.dtd"
   xmlns="http://www.w3.org/2000/svg"
   xmlns:svg="http://www.w3.org/2000/svg">
  <sodipodi:namedview
     id="namedview1"
     pagecolor="#ffffff"
     bordercolor="#000000"
     borderopacity="0.25"
     inkscape:showpageshadow="2"
     inkscape:pageopacity="0.0"
     inkscape:pagecheckerboard="0"
     inkscape:deskcolor="#d1d1d1"
     inkscape:document-units="mm"
     inkscape:export-bgcolor="#ffffff00"
     inkscape:zoom="2.3164064"
     inkscape:cx="132.53288"
     inkscape:cy="127.78414"
     inkscape:window-width="1368"
     inkscape:window-height="850"
     inkscape:window-x="-6"
     inkscape:window-y="-6"
     inkscape:window-maximized="1"
     inkscape:current-layer="layer2" />
  <defs
     id="defs1" />
  <g
     inkscape:label="Livello 1"
     inkscape:groupmode="layer"
     id="layer1"
     style="display:none">
    <g
       id="g2"
       style="fill:#1976d3;fill-opacity:1"
       transform="scale(0.13229167)">
      <path
         id="path3"
         style="display:inline;fill:#1976d3;fill-opacity:1"
         d="M 255.99999,0 C 114.60013,0 0,114.60013 0,255.99999 c 0,141.39986 114.60013,256 255.99999,256 141.39986,0 256,-114.60014 256,-256 C 511.99999,114.60013 397.39985,0 255.99999,0 Z m 3.45313,137.95703 c 16.25192,0.0227 23.11621,1.08172 35.6875,5.51562 14.7419,5.19948 28.44336,13.78012 40.8164,25.55469 10.42767,9.92327 17.7714,19.93226 24.53125,33.4414 6.39818,12.78639 9.15006,22.32356 10.8125,37.47657 1.03092,9.39685 0.69851,30.83678 -0.5664,36.52343 l -0.51954,2.33203 -85.16796,0.25782 c -46.84246,0.1416 -85.84866,0.59065 -86.67969,0.99609 -5.4631,2.6653 4.51237,19.28163 18.09766,30.14844 13.09667,10.47597 21.14273,13.09006 40.39843,13.11328 9.91989,0.012 14.3668,-0.36037 18.9961,-1.58985 8.58369,-2.27967 17.76655,-6.69386 24.83984,-11.9375 l 6.09766,-4.51953 6.98047,3.71875 c 15.42122,8.2185 36.76562,20.28229 36.76562,20.77735 0,2.58697 -16.42172,17.12809 -27.62891,24.46484 -13.88574,9.09027 -33.01303,16.66663 -48.35156,19.15234 -9.99251,1.61936 -26.49816,1.6075 -35.83203,-0.0273 -15.72942,-2.75484 -33.1211,-9.6408 -46.09375,-18.24609 -10.41541,-6.90898 -25.93688,-22.6 -33.15234,-33.51563 -22.18573,-33.56288 -25.60864,-73.804 -9.57422,-112.53906 5.91255,-14.2832 15.00575,-27.0179 28.25,-39.55468 10.54345,-9.98026 17.83732,-15.20482 28.625,-20.50782 17.82096,-8.7604 28.84105,-11.06844 52.66797,-11.03515 z m -2.16406,50.50781 c -9.87204,0.095 -19.7208,2.01189 -28.17188,5.8125 -7.68163,3.45458 -14.63116,8.46275 -21.10937,15.21484 -7.31736,7.62675 -12.14015,14.91183 -12.3125,18.60156 l -0.13281,2.86719 5.17968,0.50391 c 7.03,0.6818 104.67101,0.71191 112.24219,0.0351 6.00441,-0.5368 6.04208,-0.55484 5.86718,-3.01171 -0.4958,-6.96424 -15.83729,-25.314 -26.3164,-31.47657 -9.82624,-5.77863 -22.55347,-8.669 -35.24609,-8.54687 z"
         sodipodi:nodetypes="sssssssssscccsssscccssscsssssssssccccsss" />
    </g>
  </g>
  <g
     inkscape:groupmode="layer"
     id="layer2"
     inkscape:label="Livello 2">
    <path
       d="m 34.854924,0.79415143 c 4.560249,0.006396 6.486361,0.30350787 10.013833,1.54768137 4.136541,1.4590181 7.981149,3.8666703 11.453002,7.170592 2.925972,2.7844472 4.986603,5.5929452 6.883406,9.3835852 1.795313,3.587822 2.567487,6.263933 3.033971,10.515848 0.289238,2.636734 0.196086,8.65273 -0.158728,10.248382 l -0.145901,0.654313 -23.897944,0.07215 c -13.143891,0.04008 -24.088946,0.165779 -24.322133,0.279455 -1.532931,0.747947 1.26614,5.410391 5.078168,8.459594 3.674897,2.939536 5.932607,3.673037 11.335703,3.679547 2.783502,0.0034 4.031298,-0.101009 5.330274,-0.446043 2.408549,-0.639723 4.985239,-1.878285 6.97,-3.349632 l 1.71098,-1.268224 1.958707,1.043439 c 4.327158,2.306097 10.316347,5.691164 10.316347,5.830075 0,0.725981 -4.6079,4.806117 -7.752612,6.864791 -3.8963,2.5507 -9.263369,4.676618 -13.567327,5.374093 -2.803879,0.454379 -7.435331,0.451012 -10.054397,-0.0077 C 24.626632,66.073164 19.746569,64.140943 16.10648,61.726316 13.183939,59.787666 8.8286419,55.384799 6.8040058,52.321904 0.57872882,42.904232 -0.38172111,31.612668 4.117489,20.743691 5.7765366,16.735865 8.3280702,13.162537 12.044382,9.6447325 15.002854,6.8442999 17.049486,5.3782915 20.0765,3.8902857 25.077019,1.4321455 28.169224,0.78450134 34.855005,0.79384934 Z M 34.247749,14.966522 c -2.770082,0.02726 -5.533623,0.564528 -7.904976,1.630974 -2.15545,0.969365 -4.105467,2.37464 -5.923243,4.269263 -2.053223,2.140042 -3.406486,4.184222 -3.454859,5.219548 l -0.03688,0.804545 1.453407,0.141092 c 1.972608,0.191274 29.370446,0.199772 31.494905,0.01 1.684829,-0.150712 1.695395,-0.155522 1.646317,-0.845109 -0.139484,-1.954156 -4.443892,-7.103045 -7.38431,-8.832254 -2.757223,-1.621466 -6.328451,-2.432504 -9.889977,-2.398225 z"
       style="display:inline;fill:#1976d3;fill-opacity:1;stroke-width:2.12106"
       id="path1" />
  </g>
</svg>
