<?xml version="1.0" encoding="UTF-8" standalone="no"?>
<svg
   height="960"
   viewBox="0 0 960 960"
   width="960"
   version="1.1"
   id="svg1"
   sodipodi:docname="ic_ZBMINIR2.svg"
   xml:space="preserve"
   inkscape:version="1.3 (0e150ed6c4, 2023-07-21)"
   xmlns:inkscape="http://www.inkscape.org/namespaces/inkscape"
   xmlns:sodipodi="http://sodipodi.sourceforge.net/DTD/sodipodi-0.dtd"
   xmlns="http://www.w3.org/2000/svg"
   xmlns:svg="http://www.w3.org/2000/svg"><defs
     id="defs1" /><sodipodi:namedview
     id="namedview1"
     pagecolor="#ffffff"
     bordercolor="#000000"
     borderopacity="0.25"
     inkscape:showpageshadow="2"
     inkscape:pageopacity="0.0"
     inkscape:pagecheckerboard="0"
     inkscape:deskcolor="#d1d1d1"
     inkscape:zoom="0.61770833"
     inkscape:cx="480"
     inkscape:cy="479.19056"
     inkscape:window-width="1368"
     inkscape:window-height="850"
     inkscape:window-x="-6"
     inkscape:window-y="-6"
     inkscape:window-maximized="1"
     inkscape:current-layer="layer1" /><path
     d="m 297.6,129.2 h 0.5 c 0,0 513.2,19.1 513.2,19.1 0.2,0 0.3,0 0.5,0 h 0.5 c 77.5,4.9 140.7,67.9 140.7,142.8 v 412.8 c 0,75 -63.2,137.9 -140.7,142.8 -0.3,0 -0.7,0 -1,0 l -513.2,19 h -0.6 c -10.6,0.6 -21.2,0 -31.5,-1.7 l -1.1,-0.2 h -0.5 c -1.1,0 -2.3,-0.2 -3.4,-0.4 h -0.8 c -45.6,-7.8 -76.9,-13.3 -94.1,-16.6 -0.2,0 -1.9,-0.3 -3.8,-0.7 h -0.5 c 0,0 -0.5,-0.2 -0.5,-0.2 -1.2,-0.2 -2.3,-0.4 -3,-0.5 -5.4,-1 -10.7,-2 -16.3,-3.1 C 126.1,839 110.6,835 95.8,830.1 73.5,822.7 54.4,813.8 39.1,802.5 16.4,785.7 2.2,763.6 2.2,736.4 V 736 L 6.5,276.3 v -0.7 c 0.3,-33.9 15.4,-60.5 43.3,-79.2 19.7,-13.2 43.5,-22 85.1,-33.5 0.5,-0.1 1,-0.3 1.6,-0.4 l 102.2,-23.9 h 0.2 c 18.5,-7.4 38.5,-10.6 59,-9.5 v 0 z M 913,671.4 203,692.6 v 16.2 c 0,57.6 36.9,102.2 90.7,117.2 0.8,0 1.6,0 2.5,-0.1 l 513.6,-19 C 866.8,803.3 913,757.3 913,704 Z M 223.8,183.2 145.4,201.5 c -63.9,17.7 -99,32.4 -99,75.2 l -4.3,459.7 c 0,51.7 119.9,68.9 131.6,71.2 12.6,2.4 33.2,6.1 61.7,10.9 C 203.1,793 183.1,754.3 183.1,708.7 v -25.6 c 0,0 0,0 0,0 0,-0.2 0,-0.4 0,-0.6 V 274.3 c 0,-38.6 15,-69.6 40.8,-91.2 v 0 z m 222,540.3 c 17.8,-0.3 32.5,14.5 32.8,33.4 0.3,19.1 -14.1,35.3 -32.2,36.2 -18.1,0.9 -33,-14 -33.3,-33.4 -0.3,-19.3 14.1,-35.5 32.2,-36.2 z m 95,-2.9 c 17.6,0 31.9,14.5 32.2,32.9 0.3,18.8 -14.1,34.8 -32.2,35.6 -18.1,0.9 -33,-13.8 -33.3,-32.9 -0.3,-19 14.1,-35 32.2,-35.7 h 0.5 c 0,0 0.5,0 0.5,0 z m 94.5,-2.8 c 17.6,0 31.9,14.2 32.2,32.4 0.3,18.5 -14.1,34.2 -32.2,35.1 -18.1,0.9 -33,-13.6 -33.3,-32.4 -0.3,-18.7 14.1,-34.5 32.2,-35.1 h 0.5 c 0,0 0.5,0 0.5,0 z m 94.5,-2.8 c 17.6,0 31.9,14 32.2,31.9 0.3,18.2 -14.1,33.7 -32.2,34.5 -18.1,0.9 -33,-13.4 -33.3,-31.8 -0.3,-18.5 14.1,-33.9 32.2,-34.5 h 0.5 c 0,0 0.5,0 0.5,0 z m -415,-545.1 c -28.5,2.3 -53.5,10.6 -72.5,24.3 -25.4,18.3 -39.3,45.5 -39.3,80.2 V 672.6 L 913,651.4 V 291.2 C 913,238 866.8,191.9 809.8,188.3 Z m 505.9,94.9 c 31.8,0 57.3,27.5 57.3,61.1 0,33.6 -25.5,61.1 -57.3,61.1 -31.8,0 -57.3,-27.5 -57.3,-61.1 0,-33.6 25.5,-61.1 57.3,-61.1 z m 0,20 c -20.4,0 -37.3,18.2 -37.3,41.1 0,22.9 16.9,41.1 37.3,41.1 20.4,0 37.3,-18.2 37.3,-41.1 0,-22.9 -16.9,-41.1 -37.3,-41.1 z M 351.2,727.6 c 17.8,-0.3 32.5,14.5 32.8,33.4 0.3,19.1 -14.1,35.3 -32.2,36.2 -18.1,0.9 -33,-14 -33.3,-33.4 -0.3,-19.3 14.1,-35.5 32.2,-36.2 z m 473.1,-15.9 c 17.6,0 31.9,14.5 32.2,32.9 0.3,18.8 -14.1,34.8 -32.2,35.6 -18.1,0.9 -33,-13.8 -33.3,-32.9 -0.3,-19 14.1,-35 32.2,-35.7 h 0.5 c 0,0 0.5,0 0.5,0 z"
     id="path1"
     style="display:inline" /><g
     inkscape:groupmode="layer"
     id="layer1"
     inkscape:label="zb_logo"><g
       style="fill:#000000"
       id="g1"
       transform="matrix(4.3951434,0,0,4.8137284,250.96418,264.69459)"><path
         d="M 11.988,0 A 11.85,11.85 0 0 0 3.371,3.696 C 10.391,2.821 14.772,3.113 16.66,3.356 20.412,3.939 20.218,6.76 20.218,6.76 L 8.237,19.112 c 2.299,0.22 6.897,0.366 13.796,-0.631 a 11.86,11.86 0 0 0 1.912,-6.469 C 23.945,5.374 18.595,0 11.988,0 Z M 12.22,4.31 C 9.769,4.296 6.448,4.456 2.257,5.033 0.854,7.003 0.055,9.41 0.055,12.012 0.055,18.626 5.38,24 11.988,24 c 3.63,0 6.85,-1.63 9.053,-4.182 C 13.755,20.766 9.228,20.449 7.291,20.206 3.516,19.646 3.734,16.802 3.734,16.802 L 15.691,4.474 A 38.635,38.635 0 0 0 12.22,4.311 Z"
         id="path1-7" /></g></g></svg>
